<svg data-name="Digiturk Logo" xmlns="http://www.w3.org/2000/svg" width="100" height="35.273" viewBox="0 0 100 35.273">
    <path data-name="Path 300381" d="M29.2 22.008a7.765 7.765 0 1 0-7.765-7.766 7.766 7.766 0 0 0 7.765 7.766m.009-11.246a3.483 3.483 0 1 1-3.476 3.48 3.485 3.485 0 0 1 3.476-3.48m0 12.319a6.1 6.1 0 1 0 6.1 6.1 6.1 6.1 0 0 0-6.1-6.1m0 8.612a2.514 2.514 0 1 1 2.516-2.512 2.507 2.507 0 0 1-2.516 2.512M16.906.005a2.733 2.733 0 0 1 2.75 2.748 2.749 2.749 0 1 1-2.75-2.748m-2.365 6.7h4.73v14.9h-4.73zm26.952-6.7a2.734 2.734 0 0 1 2.752 2.748A2.75 2.75 0 1 1 41.493.005m-2.364 6.7h4.729v14.9h-4.729zm7.98-3.953h4.73v3.955h2.717v3.527h-2.717v11.375h-4.73zm46.451 11.74 6.258 7.117H94.18l-4.9-6.085v6.085h-4.731V.161h4.729v13.292l5.406-6.747H100zm-29.6 7.516a7.49 7.49 0 0 1-7.484-7.477V6.706h4.574v7.982a2.946 2.946 0 0 0 2.922 3.033 2.9 2.9 0 0 0 2.922-3.033V6.706h4.562l-.009 7.825a7.489 7.489 0 0 1-7.484 7.477M12.308 10.993a11 11 0 0 1-11 10.994H0v-4.841h1.307a6.153 6.153 0 1 0 0-12.307H.009L0 0h1.3a11 11 0 0 1 11 10.993m70.023-5.367v4.727h-.938a3.044 3.044 0 0 0-3.036 3.016v8.24H73.62v-8.243a7.733 7.733 0 0 1 7.766-7.739z" style="fill:#fff"/>
    <path data-name="Path 300382" d="M169.159 120.366v.6h-.459v-4.396h.463v1.907a1.4 1.4 0 0 1 1.191-.692 1.517 1.517 0 0 1 1.486 1.612v.012a1.523 1.523 0 0 1-1.486 1.618 1.4 1.4 0 0 1-1.191-.662m2.2-.95v-.015a1.12 1.12 0 0 0-1.095-1.2 1.16 1.16 0 0 0-1.125 1.2v.012a1.158 1.158 0 0 0 1.125 1.2 1.1 1.1 0 0 0 1.095-1.2m2.7 1.215a1.287 1.287 0 0 0 .981-.439l.289.259a1.606 1.606 0 0 1-1.281.583 1.628 1.628 0 0 1-.06-3.248 1.482 1.482 0 0 1 1.45 1.648c0 .042 0 .09-.006.162h-2.467a1.087 1.087 0 0 0 1.095 1.035m.908-1.407a1.021 1.021 0 0 0-.993-1.047 1.074 1.074 0 0 0-1.011 1.047zm1.4-2.473h.475v4.211h-.475zm1.708 0h.445l2.653 3.375v-3.372h.463v4.211h-.379l-2.719-3.453v3.453h-.463zm7.122 0h.481l1.534 2.3 1.534-2.3h.481v4.211h-.476v-3.411l-1.534 2.256h-.022l-1.534-2.25v3.4h-.466zm5.221 0h3.044v.433H190.9v1.438h2.3v.433h-2.3v1.474h2.6v.433h-3.074zm4.03 0h1.462a2.1 2.1 0 0 1 2.238 2.094v.012a2.108 2.108 0 0 1-2.238 2.105h-1.462zm1.462 3.772a1.63 1.63 0 0 0 1.745-1.654v-.012a1.639 1.639 0 0 0-1.745-1.666h-.986v3.333zm3.284-3.772h.475v4.211h-.474zm3.266-.03h.445l1.919 4.241h-.511l-.493-1.113h-2.292l-.5 1.113h-.487zm1.173 2.7-.957-2.148-.962 2.148zm3.639-.553v-.012a2.113 2.113 0 0 1 2.112-2.178 2.219 2.219 0 0 1 1.57.559l-.307.361a1.792 1.792 0 0 0-1.281-.481 1.645 1.645 0 0 0-1.6 1.726v.012a1.627 1.627 0 0 0 1.666 1.751 1.984 1.984 0 0 0 1.215-.421v-1.047h-1.281v-.427h1.738v1.678a2.552 2.552 0 0 1-1.69.644 2.065 2.065 0 0 1-2.142-2.165m4.9-2.118h1.811a1.66 1.66 0 0 1 1.2.421 1.163 1.163 0 0 1 .325.83v.012a1.232 1.232 0 0 1-1.143 1.227l1.293 1.721h-.584l-1.221-1.636h-1.2v1.636h-.475zm1.768 2.148c.632 0 1.083-.325 1.083-.866v-.012c0-.517-.4-.83-1.077-.83h-1.3v1.714zm2.394-.03v-.012a2.148 2.148 0 1 1 4.3-.012v.012a2.148 2.148 0 1 1-4.3.012m3.8 0v-.012a1.674 1.674 0 0 0-1.661-1.738 1.654 1.654 0 0 0-1.648 1.726v.012a1.674 1.674 0 0 0 1.661 1.738 1.654 1.654 0 0 0 1.648-1.726m1.431.331v-2.445h.475v2.418c0 .908.481 1.42 1.287 1.42.776 0 1.269-.469 1.269-1.39v-2.448h.475v2.412a1.756 1.756 0 1 1-3.507.036m4.632-2.448h1.576c.951 0 1.576.505 1.576 1.336v.012c0 .908-.758 1.378-1.654 1.378h-1.023v1.486h-.475zm1.516 2.292c.7 0 1.155-.373 1.155-.926v-.016c0-.6-.451-.914-1.131-.914h-1.065v1.853zm-58.565 1.323v.6h-.452v-4.395h.463v1.907a1.4 1.4 0 0 1 1.191-.692 1.517 1.517 0 0 1 1.486 1.612v.012a1.523 1.523 0 0 1-1.486 1.618 1.4 1.4 0 0 1-1.191-.662m2.2-.95v-.015a1.12 1.12 0 0 0-1.095-1.2 1.16 1.16 0 0 0-1.125 1.2v.012a1.158 1.158 0 0 0 1.125 1.2 1.1 1.1 0 0 0 1.095-1.2m2.7 1.215a1.287 1.287 0 0 0 .981-.439l.289.259a1.606 1.606 0 0 1-1.281.583 1.628 1.628 0 0 1-.06-3.248 1.482 1.482 0 0 1 1.45 1.648c0 .042 0 .09-.006.162h-2.467a1.087 1.087 0 0 0 1.095 1.035m.908-1.407a1.021 1.021 0 0 0-.993-1.047 1.074 1.074 0 0 0-1.011 1.047zm1.4-2.473h.475v4.211h-.475zm1.708 0h.445l2.653 3.375v-3.372h.463v4.211h-.379l-2.719-3.453v3.453h-.463zm7.122 0h.481l1.534 2.3 1.534-2.3h.481v4.211h-.476v-3.411l-1.534 2.256h-.022l-1.534-2.25v3.4h-.466zm5.221 0h3.044v.433H190.9v1.438h2.3v.433h-2.3v1.474h2.6v.433h-3.074zm4.03 0h1.462a2.1 2.1 0 0 1 2.238 2.094v.012a2.108 2.108 0 0 1-2.238 2.105h-1.462zm1.462 3.772a1.63 1.63 0 0 0 1.745-1.654v-.012a1.639 1.639 0 0 0-1.745-1.666h-.986v3.333zm3.284-3.772h.475v4.211h-.474zm3.266-.03h.445l1.919 4.241h-.511l-.493-1.113h-2.292l-.5 1.113h-.487zm1.173 2.7-.957-2.148-.962 2.148zm3.639-.553v-.012a2.113 2.113 0 0 1 2.112-2.178 2.219 2.219 0 0 1 1.57.559l-.307.361a1.792 1.792 0 0 0-1.281-.481 1.645 1.645 0 0 0-1.6 1.726v.012a1.627 1.627 0 0 0 1.666 1.751 1.984 1.984 0 0 0 1.215-.421v-1.047h-1.281v-.427h1.738v1.678a2.552 2.552 0 0 1-1.69.644 2.065 2.065 0 0 1-2.142-2.165m4.9-2.118h1.811a1.66 1.66 0 0 1 1.2.421 1.163 1.163 0 0 1 .325.83v.012a1.232 1.232 0 0 1-1.143 1.227l1.293 1.721h-.584l-1.221-1.636h-1.2v1.636h-.475zm1.768 2.148c.632 0 1.083-.325 1.083-.866v-.012c0-.517-.4-.83-1.077-.83h-1.3v1.714zm2.394-.03v-.012a2.148 2.148 0 1 1 4.3-.012v.012a2.148 2.148 0 1 1-4.3.012m3.8 0v-.012a1.674 1.674 0 0 0-1.661-1.738 1.654 1.654 0 0 0-1.648 1.726v.012a1.674 1.674 0 0 0 1.661 1.738 1.654 1.654 0 0 0 1.648-1.726m1.431.331v-2.445h.475v2.418c0 .908.481 1.42 1.287 1.42.776 0 1.269-.469 1.269-1.39v-2.448h.475v2.412a1.756 1.756 0 1 1-3.507.036m4.632-2.448h1.576c.951 0 1.576.505 1.576 1.336v.012c0 .908-.758 1.378-1.654 1.378h-1.023v1.486h-.475zm1.516 2.292c.7 0 1.155-.373 1.155-.926v-.016c0-.6-.451-.914-1.131-.914h-1.065v1.853zm-58.565 1.323v.6h-.452v-4.395h.463v1.907a1.4 1.4 0 0 1 1.191-.692 1.517 1.517 0 0 1 1.486 1.612v.012a1.523 1.523 0 0 1-1.486 1.618 1.4 1.4 0 0 1-1.191-.662m2.2-.95v-.015a1.12 1.12 0 0 0-1.095-1.2 1.16 1.16 0 0 0-1.125 1.2v.012a1.158 1.158 0 0 0 1.125 1.2 1.1 1.1 0 0 0 1.095-1.2m2.7 1.215a1.287 1.287 0 0 0 .981-.439l.289.259a1.606 1.606 0 0 1-1.281.583 1.628 1.628 0 0 1-.06-3.248 1.482 1.482 0 0 1 1.45 1.648c0 .042 0 .09-.006.162h-2.467a1.087 1.087 0 0 0 1.095 1.035m.908-1.407a1.021 1.021 0 0 0-.993-1.047 1.074 1.074 0 0 0-1.011 1.047zm1.4-2.473h.475v4.211h-.475zm1.708 0h.445l2.653 3.375v-3.372h.463v4.211h-.379l-2.719-3.453v3.453h-.463zm7.122 0h.481l1.534 2.3 1.534-2.3h.481v4.211h-.476v-3.411l-1.534 2.256h-.022l-1.534-2.25v3.4h-.466zm5.221 0h3.044v.433H190.9v1.438h2.3v.433h-2.3v1.474h2.6v.433h-3.074zm4.03 0h1.462a2.1 2.1 0 0 1 2.238 2.094v.012a2.108 2.108 0 0 1-2.238 2.105h-1.462zm1.462 3.772a1.63 1.63 0 0 0 1.745-1.654v-.012a1.639 1.639 0 0 0-1.745-1.666h-.986v3.333zm3.284-3.772h.475v4.211h-.474zm3.266-.03h.445l1.919 4.241h-.511l-.493-1.113h-2.292l-.5 1.113h-.487zm1.173 2.7-.957-2.148-.962 2.148zm3.639-.553v-.012a2.113 2.113 0 0 1 2.112-2.178 2.219 2.219 0 0 1 1.57.559l-.307.361a1.792 1.792 0 0 0-1.281-.481 1.645 1.645 0 0 0-1.6 1.726v.012a1.627 1.627 0 0 0 1.666 1.751 1.984 1.984 0 0 0 1.215-.421v-1.047h-1.281v-.427h1.738v1.678a2.552 2.552 0 0 1-1.69.644 2.065 2.065 0 0 1-2.142-2.165m4.9-2.118h1.811a1.66 1.66 0 0 1 1.2.421 1.163 1.163 0 0 1 .325.83v.012a1.232 1.232 0 0 1-1.143 1.227l1.293 1.721h-.584l-1.221-1.636h-1.2v1.636h-.475zm1.768 2.148c.632 0 1.083-.325 1.083-.866v-.012c0-.517-.4-.83-1.077-.83h-1.3v1.714zm2.394-.03v-.012a2.148 2.148 0 1 1 4.3-.012v.012a2.148 2.148 0 1 1-4.3.012m3.8 0v-.012a1.674 1.674 0 0 0-1.661-1.738 1.654 1.654 0 0 0-1.648 1.726v.012a1.674 1.674 0 0 0 1.661 1.738 1.654 1.654 0 0 0 1.648-1.726m1.431.331v-2.445h.475v2.418c0 .908.481 1.42 1.287 1.42.776 0 1.269-.469 1.269-1.39v-2.448h.475v2.412a1.756 1.756 0 1 1-3.507.036m4.632-2.448h1.576c.951 0 1.576.505 1.576 1.336v.012c0 .908-.758 1.378-1.654 1.378h-1.023v1.486h-.475zm1.516 2.292c.7 0 1.155-.373 1.155-.926v-.016c0-.6-.451-.914-1.131-.914h-1.065v1.853zm-58.565 1.323v.6h-.452v-4.395h.463v1.907a1.4 1.4 0 0 1 1.191-.692 1.517 1.517 0 0 1 1.486 1.612v.012a1.523 1.523 0 0 1-1.486 1.618 1.4 1.4 0 0 1-1.191-.662m2.2-.95v-.015a1.12 1.12 0 0 0-1.095-1.2 1.16 1.16 0 0 0-1.125 1.2v.012a1.158 1.158 0 0 0 1.125 1.2 1.1 1.1 0 0 0 1.095-1.2m2.7 1.215a1.287 1.287 0 0 0 .981-.439l.289.259a1.606 1.606 0 0 1-1.281.583 1.628 1.628 0 0 1-.06-3.248 1.482 1.482 0 0 1 1.45 1.648c0 .042 0 .09-.006.162h-2.467a1.087 1.087 0 0 0 1.095 1.035m.908-1.407a1.021 1.021 0 0 0-.993-1.047 1.074 1.074 0 0 0-1.011 1.047zm1.4-2.473h.475v4.211h-.475zm1.708 0h.445l2.653 3.375v-3.372h.463v4.211h-.379l-2.719-3.453v3.453h-.463zm7.122 0h.481l1.534 2.3 1.534-2.3h.481v4.211h-.476v-3.411l-1.534 2.256h-.022l-1.534-2.25v3.4h-.466zm5.221 0h3.044v.433H190.9v1.438h2.3v.433h-2.3v1.474h2.6v.433h-3.074zm4.03 0h1.462a2.1 2.1 0 0 1 2.238 2.094v.012a2.108 2.108 0 0 1-2.238 2.105h-1.462zm1.462 3.772a1.63 1.63 0 0 0 1.745-1.654v-.012a1.639 1.639 0 0 0-1.745-1.666h-.986v3.333zm3.284-3.772h.475v4.211h-.474zm3.266-.03h.445l1.919 4.241h-.511l-.493-1.113h-2.292l-.5 1.113h-.487zm1.173 2.7-.957-2.148-.962 2.148zm3.639-.553v-.012a2.113 2.113 0 0 1 2.112-2.178 2.219 2.219 0 0 1 1.57.559l-.307.361a1.792 1.792 0 0 0-1.281-.481 1.645 1.645 0 0 0-1.6 1.726v.012a1.627 1.627 0 0 0 1.666 1.751 1.984 1.984 0 0 0 1.215-.421v-1.047h-1.281v-.427h1.738v1.678a2.552 2.552 0 0 1-1.69.644 2.065 2.065 0 0 1-2.142-2.165m4.9-2.118h1.811a1.66 1.66 0 0 1 1.2.421 1.163 1.163 0 0 1 .325.83v.012a1.232 1.232 0 0 1-1.143 1.227l1.293 1.721h-.584l-1.221-1.636h-1.2v1.636h-.475zm1.768 2.148c.632 0 1.083-.325 1.083-.866v-.012c0-.517-.4-.83-1.077-.83h-1.3v1.714zm2.394-.03v-.012a2.148 2.148 0 1 1 4.3-.012v.012a2.148 2.148 0 1 1-4.3.012m3.8 0v-.012a1.674 1.674 0 0 0-1.661-1.738 1.654 1.654 0 0 0-1.648 1.726v.012a1.674 1.674 0 0 0 1.661 1.738 1.654 1.654 0 0 0 1.648-1.726m1.431.331v-2.445h.475v2.418c0 .908.481 1.42 1.287 1.42.776 0 1.269-.469 1.269-1.39v-2.448h.475v2.412a1.756 1.756 0 1 1-3.507.036m4.632-2.448h1.576c.951 0 1.576.505 1.576 1.336v.012c0 .908-.758 1.378-1.654 1.378h-1.023v1.486h-.475zm1.516 2.292c.7 0 1.155-.373 1.155-.926v-.016c0-.6-.451-.914-1.131-.914h-1.065v1.853z" transform="translate(-129.567 -89.531)" style="fill:#fff"/>
</svg>
