<?xml version="1.0" encoding="UTF-8"?>
<svg xmlns="http://www.w3.org/2000/svg" version="1.1" viewBox="0 0 141 62">
  <defs>
    <style>
      .cls-1 {
        display: none;
      }

      .cls-2 {
        fill: #d60a29;
        fill-rule: evenodd;
      }
    </style>
  </defs>
  <!-- Generator: Adobe Illustrator 28.6.0, SVG Export Plug-In . SVG Version: 1.2.0 Build 709)  -->
  <g>
    <g id="Layer_1">
      <rect class="cls-1" x="-2.1" y="-2" width="145.6" height="64"/>
      <g id="Page-1">
        <g id="Homepage-7.4.1">
          <g id="Header-1">
            <g id="logo_x2F_digiturk_x5F_partner">
              <g id="Fill-1">
                <path class="cls-2" d="M41.1,37.3c-2.7,0-4.9-2.2-4.9-4.9s2.2-4.9,4.9-4.9,4.9,2.2,4.9,4.9c0,2.7-2.1,4.9-4.9,4.9M41.1,21.4c-5.8,0-10.9,4.7-10.9,10.9s4.9,10.9,10.9,10.9,10.9-4.9,10.9-10.9c0-6-4.8-10.9-10.9-10.9"/>
              </g>
              <g id="Group-5">
                <g id="Fill-3">
                  <path class="cls-2" d="M41.2,57c-1.9,0-3.5-1.6-3.5-3.5s1.6-3.5,3.5-3.5,3.5,1.6,3.5,3.5-1.5,3.5-3.5,3.5M41.2,44.8c-4.7,0-8.6,3.9-8.6,8.6s3.8,8.6,8.6,8.6,8.6-3.8,8.6-8.6c0-4.7-3.8-8.6-8.6-8.6"/>
                </g>
              </g>
              <g id="Fill-6">
                <path class="cls-2" d="M23.8,12.3c2.1,0,3.9,1.7,3.9,3.9s-1.8,3.9-3.9,3.9-3.9-1.9-3.9-3.9,1.8-3.9,3.9-3.9"/>
              </g>
              <g id="Fill-8">
                <polygon class="cls-2" points="20.5 42.7 27.2 42.7 27.2 21.8 20.5 21.8 20.5 42.7"/>
              </g>
              <g id="Fill-10">
                <path class="cls-2" d="M58.5,12.3c2.1,0,3.9,1.7,3.9,3.9s-1.8,3.9-3.9,3.9-3.9-1.9-3.9-3.9,1.7-3.9,3.9-3.9"/>
              </g>
              <g id="Fill-11">
                <polygon class="cls-2" points="55.1 42.7 61.8 42.7 61.8 21.8 55.1 21.8 55.1 42.7"/>
              </g>
              <g id="Fill-12">
                <polygon class="cls-2" points="66.4 16.2 73 16.2 73 21.8 76.9 21.8 76.9 26.7 73 26.7 73 42.7 66.4 42.7 66.4 16.2"/>
              </g>
              <g id="Fill-13">
                <polygon class="cls-2" points="131.8 32.7 140.6 42.7 132.7 42.7 125.8 34.2 125.8 42.7 119.1 42.7 119.1 12.5 125.8 12.5 125.8 31.3 133.4 21.8 140.9 21.8 131.8 32.7"/>
              </g>
              <g id="Fill-14">
                <path class="cls-2" d="M90.1,43.3c-5.9,0-10.5-4.8-10.5-10.5v-11h6.4v11.2c0,2.5,1.9,4.3,4.1,4.3s4.1-1.9,4.1-4.3v-11.2h6.4v11c0,5.7-4.6,10.5-10.5,10.5"/>
              </g>
              <g id="Fill-15">
                <path class="cls-2" d="M17.3,27.8c0,8.6-6.9,15.5-15.5,15.5H0v-6.8h1.8c4.8,0,8.7-3.9,8.7-8.7s-3.9-8.7-8.7-8.7H0v-6.8h1.8c8.6,0,15.5,6.9,15.5,15.5"/>
              </g>
              <g id="Fill-16">
                <path class="cls-2" d="M116,20.2v6.7h-1.3c-2.3,0-4.3,1.9-4.3,4.2v11.6h-6.7v-11.6c0-6.5,5.3-10.9,10.9-10.9h1.4Z"/>
              </g>
            </g>
          </g>
        </g>
      </g>
    </g>
  </g>
</svg>